<svg viewBox="0 0 1129 400" xmlns="http://www.w3.org/2000/svg"><g><g><g><g><g><line x1="40" y1="375.3682641847848" x2="35" y2="375.3682641847848" style="visibility: inherit;" fill="rgb(0, 0, 0)" stroke="rgb(204, 204, 204)" stroke-width="1px"></line><line x1="40" y1="350.1682641847845" x2="35" y2="350.1682641847845" style="visibility: inherit;" fill="rgb(0, 0, 0)" stroke="rgb(204, 204, 204)" stroke-width="1px"></line><line x1="40" y1="324.96826418478423" x2="35" y2="324.96826418478423" style="visibility: inherit;" fill="rgb(0, 0, 0)" stroke="rgb(204, 204, 204)" stroke-width="1px"></line><line x1="40" y1="299.76826418478396" x2="35" y2="299.76826418478396" style="visibility: inherit;" fill="rgb(0, 0, 0)" stroke="rgb(204, 204, 204)" stroke-width="1px"></line><line x1="40" y1="274.5682641847837" x2="35" y2="274.5682641847837" style="visibility: inherit;" fill="rgb(0, 0, 0)" stroke="rgb(204, 204, 204)" stroke-width="1px"></line><line x1="40" y1="249.3682641847834" x2="35" y2="249.3682641847834" style="visibility: inherit;" fill="rgb(0, 0, 0)" stroke="rgb(204, 204, 204)" stroke-width="1px"></line><line x1="40" y1="224.16826418478317" x2="35" y2="224.16826418478317" style="visibility: inherit;" fill="rgb(0, 0, 0)" stroke="rgb(204, 204, 204)" stroke-width="1px"></line><line x1="40" y1="198.9682641847829" x2="35" y2="198.9682641847829" style="visibility: inherit;" fill="rgb(0, 0, 0)" stroke="rgb(204, 204, 204)" stroke-width="1px"></line><line x1="40" y1="173.76826418478257" x2="35" y2="173.76826418478257" style="visibility: inherit;" fill="rgb(0, 0, 0)" stroke="rgb(204, 204, 204)" stroke-width="1px"></line><line x1="40" y1="148.56826418478232" x2="35" y2="148.56826418478232" style="visibility: inherit;" fill="rgb(0, 0, 0)" stroke="rgb(204, 204, 204)" stroke-width="1px"></line><line x1="40" y1="123.36826418478205" x2="35" y2="123.36826418478205" style="visibility: inherit;" fill="rgb(0, 0, 0)" stroke="rgb(204, 204, 204)" stroke-width="1px"></line><line x1="40" y1="98.16826418478178" x2="35" y2="98.16826418478178" style="visibility: inherit;" fill="rgb(0, 0, 0)" stroke="rgb(204, 204, 204)" stroke-width="1px"></line><line x1="40" y1="72.9682641847815" x2="35" y2="72.9682641847815" style="visibility: inherit;" fill="rgb(0, 0, 0)" stroke="rgb(204, 204, 204)" stroke-width="1px"></line><line x1="40" y1="47.76826418478123" x2="35" y2="47.76826418478123" style="visibility: inherit;" fill="rgb(0, 0, 0)" stroke="rgb(204, 204, 204)" stroke-width="1px"></line><line x1="40" y1="22.568264184780958" x2="35" y2="22.568264184780958" style="visibility: inherit;" fill="rgb(0, 0, 0)" stroke="rgb(204, 204, 204)" stroke-width="1px"></line></g><g transform="translate(30, 0)"><text x="0" y="375.3682641847848" dx="0em" dy="0.3em" style="text-anchor: end; visibility: hidden; font-family: &quot;Helvetica Neue&quot;, sans-serif; font-size: 12px; font-weight: 200;" fill="rgb(50, 49, 63)" stroke="none" stroke-width="1px">0</text><text x="0" y="350.1682641847845" dx="0em" dy="0.3em" style="text-anchor: end; visibility: inherit; font-family: &quot;Helvetica Neue&quot;, sans-serif; font-size: 12px; font-weight: 200;" fill="rgb(50, 49, 63)" stroke="none" stroke-width="1px">0.2</text><text x="0" y="324.96826418478423" dx="0em" dy="0.3em" style="text-anchor: end; visibility: inherit; font-family: &quot;Helvetica Neue&quot;, sans-serif; font-size: 12px; font-weight: 200;" fill="rgb(50, 49, 63)" stroke="none" stroke-width="1px">0.4</text><text x="0" y="299.76826418478396" dx="0em" dy="0.3em" style="text-anchor: end; visibility: inherit; font-family: &quot;Helvetica Neue&quot;, sans-serif; font-size: 12px; font-weight: 200;" fill="rgb(50, 49, 63)" stroke="none" stroke-width="1px">0.6</text><text x="0" y="274.5682641847837" dx="0em" dy="0.3em" style="text-anchor: end; visibility: inherit; font-family: &quot;Helvetica Neue&quot;, sans-serif; font-size: 12px; font-weight: 200;" fill="rgb(50, 49, 63)" stroke="none" stroke-width="1px">0.8</text><text x="0" y="249.3682641847834" dx="0em" dy="0.3em" style="text-anchor: end; visibility: inherit; font-family: &quot;Helvetica Neue&quot;, sans-serif; font-size: 12px; font-weight: 200;" fill="rgb(50, 49, 63)" stroke="none" stroke-width="1px">1</text><text x="0" y="224.16826418478317" dx="0em" dy="0.3em" style="text-anchor: end; visibility: inherit; font-family: &quot;Helvetica Neue&quot;, sans-serif; font-size: 12px; font-weight: 200;" fill="rgb(50, 49, 63)" stroke="none" stroke-width="1px">1.2</text><text x="0" y="198.9682641847829" dx="0em" dy="0.3em" style="text-anchor: end; visibility: inherit; font-family: &quot;Helvetica Neue&quot;, sans-serif; font-size: 12px; font-weight: 200;" fill="rgb(50, 49, 63)" stroke="none" stroke-width="1px">1.4</text><text x="0" y="173.76826418478257" dx="0em" dy="0.3em" style="text-anchor: end; visibility: inherit; font-family: &quot;Helvetica Neue&quot;, sans-serif; font-size: 12px; font-weight: 200;" fill="rgb(50, 49, 63)" stroke="none" stroke-width="1px">1.6</text><text x="0" y="148.56826418478232" dx="0em" dy="0.3em" style="text-anchor: end; visibility: inherit; font-family: &quot;Helvetica Neue&quot;, sans-serif; font-size: 12px; font-weight: 200;" fill="rgb(50, 49, 63)" stroke="none" stroke-width="1px">1.8</text><text x="0" y="123.36826418478205" dx="0em" dy="0.3em" style="text-anchor: end; visibility: inherit; font-family: &quot;Helvetica Neue&quot;, sans-serif; font-size: 12px; font-weight: 200;" fill="rgb(50, 49, 63)" stroke="none" stroke-width="1px">2</text><text x="0" y="98.16826418478178" dx="0em" dy="0.3em" style="text-anchor: end; visibility: inherit; font-family: &quot;Helvetica Neue&quot;, sans-serif; font-size: 12px; font-weight: 200;" fill="rgb(50, 49, 63)" stroke="none" stroke-width="1px">2.2</text><text x="0" y="72.9682641847815" dx="0em" dy="0.3em" style="text-anchor: end; visibility: inherit; font-family: &quot;Helvetica Neue&quot;, sans-serif; font-size: 12px; font-weight: 200;" fill="rgb(50, 49, 63)" stroke="none" stroke-width="1px">2.4</text><text x="0" y="47.76826418478123" dx="0em" dy="0.3em" style="text-anchor: end; visibility: inherit; font-family: &quot;Helvetica Neue&quot;, sans-serif; font-size: 12px; font-weight: 200;" fill="rgb(50, 49, 63)" stroke="none" stroke-width="1px">2.6</text><text x="0" y="22.568264184780958" dx="0em" dy="0.3em" style="text-anchor: end; visibility: inherit; font-family: &quot;Helvetica Neue&quot;, sans-serif; font-size: 12px; font-weight: 200;" fill="rgb(50, 49, 63)" stroke="none" stroke-width="1px">2.8</text></g><line x1="40" y1="0" x2="40" y2="378" fill="rgb(0, 0, 0)" stroke="rgb(204, 204, 204)" stroke-width="1px"></line></g></g><g transform="translate(40, 0)" clip-path="url(#clip_0)"><clipPath id="clip_0"><rect width="1089" height="378"></rect></clipPath><g><g><g><line x1="108.6171881255949" y1="0" x2="108.6171881255949" y2="378" fill="rgb(0, 0, 0)" stroke="rgb(60, 60, 60)" stroke-width="1px" opacity="0.25"></line><line x1="229.61718812559474" y1="0" x2="229.61718812559474" y2="378" fill="rgb(0, 0, 0)" stroke="rgb(60, 60, 60)" stroke-width="1px" opacity="0.25"></line><line x1="350.61718812559457" y1="0" x2="350.61718812559457" y2="378" fill="rgb(0, 0, 0)" stroke="rgb(60, 60, 60)" stroke-width="1px" opacity="0.25"></line><line x1="471.61718812559445" y1="0" x2="471.61718812559445" y2="378" fill="rgb(0, 0, 0)" stroke="rgb(60, 60, 60)" stroke-width="1px" opacity="0.25"></line><line x1="592.6171881255943" y1="0" x2="592.6171881255943" y2="378" fill="rgb(0, 0, 0)" stroke="rgb(60, 60, 60)" stroke-width="1px" opacity="0.25"></line><line x1="713.6171881255941" y1="0" x2="713.6171881255941" y2="378" fill="rgb(0, 0, 0)" stroke="rgb(60, 60, 60)" stroke-width="1px" opacity="0.25"></line><line x1="834.617188125594" y1="0" x2="834.617188125594" y2="378" fill="rgb(0, 0, 0)" stroke="rgb(60, 60, 60)" stroke-width="1px" opacity="0.25"></line><line x1="955.6171881255939" y1="0" x2="955.6171881255939" y2="378" fill="rgb(0, 0, 0)" stroke="rgb(60, 60, 60)" stroke-width="1px" opacity="0.25"></line><line x1="1076.6171881255937" y1="0" x2="1076.6171881255937" y2="378" fill="rgb(0, 0, 0)" stroke="rgb(60, 60, 60)" stroke-width="1px" opacity="0.25"></line></g><g><line x1="0" y1="375.3682641847848" x2="1089" y2="375.3682641847848" fill="rgb(0, 0, 0)" stroke="rgb(60, 60, 60)" stroke-width="1px" opacity="0.25"></line><line x1="0" y1="350.1682641847845" x2="1089" y2="350.1682641847845" fill="rgb(0, 0, 0)" stroke="rgb(60, 60, 60)" stroke-width="1px" opacity="0.25"></line><line x1="0" y1="324.96826418478423" x2="1089" y2="324.96826418478423" fill="rgb(0, 0, 0)" stroke="rgb(60, 60, 60)" stroke-width="1px" opacity="0.25"></line><line x1="0" y1="299.76826418478396" x2="1089" y2="299.76826418478396" fill="rgb(0, 0, 0)" stroke="rgb(60, 60, 60)" stroke-width="1px" opacity="0.25"></line><line x1="0" y1="274.5682641847837" x2="1089" y2="274.5682641847837" fill="rgb(0, 0, 0)" stroke="rgb(60, 60, 60)" stroke-width="1px" opacity="0.25"></line><line x1="0" y1="249.3682641847834" x2="1089" y2="249.3682641847834" fill="rgb(0, 0, 0)" stroke="rgb(60, 60, 60)" stroke-width="1px" opacity="0.25"></line><line x1="0" y1="224.16826418478317" x2="1089" y2="224.16826418478317" fill="rgb(0, 0, 0)" stroke="rgb(60, 60, 60)" stroke-width="1px" opacity="0.25"></line><line x1="0" y1="198.9682641847829" x2="1089" y2="198.9682641847829" fill="rgb(0, 0, 0)" stroke="rgb(60, 60, 60)" stroke-width="1px" opacity="0.25"></line><line x1="0" y1="173.76826418478257" x2="1089" y2="173.76826418478257" fill="rgb(0, 0, 0)" stroke="rgb(60, 60, 60)" stroke-width="1px" opacity="0.25"></line><line x1="0" y1="148.56826418478232" x2="1089" y2="148.56826418478232" fill="rgb(0, 0, 0)" stroke="rgb(60, 60, 60)" stroke-width="1px" opacity="0.25"></line><line x1="0" y1="123.36826418478205" x2="1089" y2="123.36826418478205" fill="rgb(0, 0, 0)" stroke="rgb(60, 60, 60)" stroke-width="1px" opacity="0.25"></line><line x1="0" y1="98.16826418478178" x2="1089" y2="98.16826418478178" fill="rgb(0, 0, 0)" stroke="rgb(60, 60, 60)" stroke-width="1px" opacity="0.25"></line><line x1="0" y1="72.9682641847815" x2="1089" y2="72.9682641847815" fill="rgb(0, 0, 0)" stroke="rgb(60, 60, 60)" stroke-width="1px" opacity="0.25"></line><line x1="0" y1="47.76826418478123" x2="1089" y2="47.76826418478123" fill="rgb(0, 0, 0)" stroke="rgb(60, 60, 60)" stroke-width="1px" opacity="0.25"></line><line x1="0" y1="22.568264184780958" x2="1089" y2="22.568264184780958" fill="rgb(0, 0, 0)" stroke="rgb(60, 60, 60)" stroke-width="1px" opacity="0.25"></line></g></g></g><g><g><line x1="0" y1="375.3682641847848" x2="1089" y2="375.3682641847848" fill="rgb(0, 0, 0)" stroke="rgb(153, 153, 153)" stroke-width="1.5px"></line></g></g><g><g><line x1="108.6171881255949" y1="0" x2="108.6171881255949" y2="378" fill="rgb(0, 0, 0)" stroke="rgb(153, 153, 153)" stroke-width="1.5px"></line></g></g><g><g><g><g><g><path style="fill: none;" stroke="rgb(255, 112, 67)" stroke-width="2px" d="M109.34318812559489,11.690698133297701L110.91618812559489,51.30440937120551L111.64218812559488,66.42230114265845L113.57818812559488,56.91114092449368L113.82018812559488,62.393473974997335L114.18318812559488,68.74724092511661L115.15118812559489,72.96557056812236L115.51418812559488,74.64942531897418L117.32918812559488,87.53320362760462L117.69218812559487,94.23777787980322L120.11218812559487,95.66994893111291L121.08018812559487,92.9645392037516L121.56418812559487,90.13640367693432L123.98418812559487,95.4061511613836L125.55718812559486,66.02111021016196L126.88818812559487,89.89552468838798L127.49318812559487,94.81494956490798L127.85618812559485,93.49648811336317L128.94518812559485,101.92505746666899L130.27618812559487,115.7083938114788L130.88118812559486,110.60046343652073L131.12318812559485,89.18536506855583L131.24418812559486,100.53362921303739L131.72818812559487,90.7033537135107L132.69618812559486,113.05573150998242L133.78518812559486,127.87477496636248L134.39018812559488,107.51835133432434L135.72118812559486,93.45354308977016L136.44718812559483,104.13757301472947L137.05218812559485,114.9238258854067L138.86718812559485,108.04686892394864L139.59318812559485,102.19884403569682L140.19818812559484,71.55826426530024L141.04518812559485,67.62639806971987L141.52918812559486,87.4343175323433L141.77118812559485,100.93959875571375L144.07018812559485,107.53325620655022L144.67518812559484,102.96317937141282L145.40118812559484,82.03878250978596L146.00618812559483,98.20394598233798L146.24818812559485,91.74310808784548L147.21618812559484,103.51718252569435L148.66818812559484,109.38000956205491L149.75718812559484,120.87690509828775L150.72518812559483,101.82941320081505L152.66118812559483,96.42277685151078L153.14518812559484,89.32637042041785L154.35518812559482,93.35555334892234L159.67918812559483,92.77004644332902L159.80018812559484,103.70400326350932L161.85718812559483,94.87490229597682L162.09918812559482,111.35518248016632L162.22018812559483,104.50008953944189L162.58318812559483,95.74149754301538L164.39818812559483,93.04389086811625L164.7611881255948,95.80500253761795L164.8821881255948,86.41194000135187L166.09218812559482,102.03024514545973L168.14918812559483,104.96979999019277L168.3911881255948,102.02243575195155L170.93218812559482,119.4734343995595L171.29518812559482,117.43582607622164L172.2631881255948,104.1728960538374L172.9891881255948,102.6537340029314L173.2311881255948,123.95661970695858L173.59418812559483,125.79765145667557L174.3201881255948,116.72222642767889L174.92518812559481,97.8739343390526L176.13518812559482,118.42549604266435L176.8611881255948,139.3276933263671L178.0711881255948,127.10902443767733L178.7971881255948,113.05394824942192L179.0391881255948,111.87427549179091L179.6441881255948,138.13647229497644L179.76518812559482,126.78635953734883L181.5801881255948,150.70784972884195L183.75818812559478,138.1410436026486L184.0001881255948,116.2688829005653L185.4521881255948,114.32726696790189L186.29918812559478,120.48693901749573L186.4201881255948,119.70950768914656L186.6621881255948,103.23563579094065L187.0251881255948,101.24980451145319L187.2671881255948,79.59688415867748L188.7191881255948,82.5842586865142L189.0821881255948,81.206976677142L189.56618812559478,91.91315179830093L189.92918812559478,109.25838454281046L190.2921881255948,110.3596957135639L190.77618812559479,106.4604060839236L191.3811881255948,121.91592784523266L191.9861881255948,128.56286904151392L195.1321881255948,132.1241488219963L195.6161881255948,126.03200672095579L196.1001881255948,114.70866611670345L196.22118812559478,116.76604591705501L197.0681881255948,107.45815640682389L198.15718812559479,116.48045662097348L198.6411881255948,132.46595455494435L199.12518812559478,123.4945747874946L199.7301881255948,114.55805944991289L200.21418812559477,112.40528244188295L201.30318812559477,98.89504953326849L201.78718812559478,130.22833516117763L201.9081881255948,108.03474145537263L202.02918812559477,111.15206015407L202.2711881255948,121.66280533904774L203.11818812559477,114.45225282387457L203.72318812559476,124.7358211217472L203.96518812559478,102.79581338449754L204.5701881255948,107.24116237984322L204.81218812559476,122.8734508938721L205.29618812559477,131.66859768011534L205.78018812559478,125.22034595770225L206.50618812559478,117.46086662682995L206.62718812559478,129.35713463286L209.41018812559477,124.92447574348475L209.89418812559475,110.20746425690538L213.88718812559478,122.57173911926097L214.49218812559477,121.70467714839907L214.73418812559476,97.11144840399209L215.46018812559475,112.44043003781081L216.42818812559477,128.47779532883212L217.15418812559477,128.05837585750973L217.63818812559478,119.89012976477358L218.48518812559476,109.65234834600926L218.72718812559478,136.82691601361094L219.45318812559475,144.75146147333317L219.69518812559477,133.5393606890162L221.38918812559473,123.64312648643136L221.51018812559474,112.26401042319344L222.72018812559475,111.06653613131999L223.08318812559475,113.34138308390601L224.17218812559474,114.8383263201548L224.65618812559475,115.80086356164782L225.14018812559473,115.8700364879034L226.22918812559473,119.27155506375573L226.35018812559474,107.8690243414386L227.07618812559477,140.69494651321233L227.19718812559472,122.9364369729534L227.80218812559474,127.09582652620298L229.25418812559474,124.52674754300375L229.98018812559474,113.52979668933898L230.34318812559474,112.79648003608793L231.43218812559473,113.31859884693273L231.79518812559476,115.08876195625459L232.76318812559475,125.15329483847987L234.21518812559475,128.54200064416997L235.06218812559473,114.77751342278043L236.6351881255947,114.48424372025681L237.36118812559474,102.05880928063948L237.72418812559474,104.73703555534581L237.96618812559473,91.12906901456631L238.45018812559474,97.90976199811882L238.93418812559474,88.51707797288157L239.17618812559473,94.75996105749522L239.78118812559472,106.6958543298943L239.90218812559473,91.57702587530378L240.99118812559473,100.849013790953L241.71718812559473,122.31739700817715L242.20118812559474,96.5207446341289L242.32218812559475,124.71106776200759L243.53218812559473,126.68386826333787L244.13718812559472,134.65149288481481L245.83118812559474,156.44249303459324L248.61418812559472,140.78108762748124L249.09818812559473,133.73200038754754L249.2191881255947,138.75874921546244L249.34018812559472,136.06249153589297L251.51818812559472,133.07918097417178L252.97018812559472,123.50734496672882L253.09118812559473,115.40872483046371L253.81718812559473,122.65804416945068L254.6641881255947,137.80659121336413L257.8101881255947,139.18594952317775L258.05218812559474,126.57829372278033L259.2621881255947,118.64201216270789L260.59318812559474,92.88929950870761L260.9561881255947,96.23919836741851L261.3191881255947,92.69021872970313L263.7391881255947,99.85422255626588L264.4651881255947,111.07501493170196L265.31218812559473,131.3495199284969L266.0381881255947,139.0729697413016L267.2481881255947,125.99022425270249L267.9741881255947,111.84668123810746L268.3371881255947,114.03900544155755L269.30518812559467,121.61629027963716L269.66818812559467,139.18949204643775L270.0311881255947,131.11524933012018L270.39418812559467,121.52290878608403L270.5151881255947,133.32734494809634L272.69318812559465,152.07197249231922L276.3231881255947,128.07563664550048L276.6861881255947,125.3219868250315L276.8071881255947,99.2107337842512L277.0491881255947,104.64471857782536L277.1701881255947,110.04741082268322L279.8321881255947,122.27365303498499L281.28418812559465,110.21172542306527L281.5261881255947,107.15345221772992L282.01018812559465,104.35597093765614L282.4941881255947,99.23198942516603L282.9781881255947,87.48211090127779L286.0031881255947,101.54014219911551L286.1241881255947,127.87380521991435L287.45518812559465,124.13343229646199L288.42318812559466,137.38717874197567L288.9071881255947,161.33546027780216L289.1491881255947,161.63116517265607L290.3591881255947,144.7754579406534L291.2061881255947,158.2990078408014L293.0211881255947,144.82000938580947L293.5051881255947,150.55647009980174L296.40918812559465,127.04479037203836L296.5301881255947,145.76048236829698L298.46618812559467,124.23248227140456L298.5871881255947,124.59663972135638L299.6761881255947,129.88685841541812L300.40218812559465,114.20128027363961L300.88618812559463,122.22499665532683L301.9751881255946,142.93579525951634L302.82218812559466,128.60334021029882L302.9431881255947,121.52546675962577L304.5161881255946,120.43773087891918L305.6051881255947,142.79441037252923L306.21018812559464,153.1751323554994L306.81518812559466,153.40170788308052L307.1781881255946,143.2198062338393L307.7831881255947,123.61841918869138L308.1461881255947,135.24519901833506L308.63018812559466,145.22367675575143L309.5981881255946,150.73005746939873L310.56618812559464,115.51903041739263L311.4131881255946,142.70169276971615L312.26018812559465,138.85607386870151L313.34918812559465,139.7334536572432L313.83318812559463,137.61980508383496L313.9541881255946,139.53689578598144L314.07518812559465,122.02748815129993L314.31718812559467,124.90050558449872L314.6801881255946,158.35788280543522L315.52718812559465,178.12546099346585L316.6161881255946,176.7477743399999L317.8261881255946,165.5749809552505L318.31018812559466,137.45389683953124L318.5521881255947,115.90426349046095L318.9151881255946,112.48205355700765L319.52018812559464,99.30274264210163L319.8831881255946,111.14059867433497L320.0041881255946,117.62104838528876L320.1251881255946,145.20592933017787L322.42418812559464,120.77077896720982L323.51318812559464,140.52138155948796L324.23918812559464,123.91395693626563L325.0861881255946,136.5414431375217L325.2071881255946,164.17514024920573L326.2961881255946,164.9215388407704L327.1431881255946,165.76286964533693L328.59518812559463,150.9921315909063L329.68418812559463,171.5017889207543L330.16818812559467,169.21913860888515L331.3781881255946,150.46662987317944L331.8621881255946,150.1267088183101L332.4671881255946,147.22853430733673L332.9511881255946,166.5417002184287L334.5241881255946,161.31240845038644L334.8871881255946,155.38519010190234L335.6131881255946,141.286079074959L335.7341881255946,141.74412830886024L335.8551881255946,143.75778202598931L339.9691881255946,144.94364196943206L340.69518812559465,145.902068793652L342.7521881255946,134.66548405337545L342.9941881255946,157.34372258985562L343.2361881255946,160.193118428571L343.9621881255946,131.3386211432867L344.3251881255946,139.69099549931983L344.5671881255946,158.0545681689701L344.93018812559455,169.30101539395972L346.7451881255946,139.26369600770062L346.9871881255946,122.75583837252725L348.43918812559457,111.04625204154524L348.5601881255946,95.65867201114446L348.6811881255946,103.58942069242806L350.8591881255946,100.76716101600528L351.34318812559457,110.8831449242021L352.3111881255946,118.0983028769997L352.7951881255946,87.24784547506351L354.0051881255946,134.27364643520866L354.3681881255946,122.5164604616127L354.7311881255946,142.37383424885425L355.0941881255946,109.50889317238278L357.9981881255946,109.87564858875606L359.4501881255946,127.43577027424908L359.57118812559463,138.50440554140434L359.9341881255946,176.82450334674783L360.05518812559455,162.37744745933588L360.2971881255946,152.42393884906883L360.5391881255946,171.34374185170162L361.0231881255946,148.56773173128386L361.5071881255946,163.9275196218936L362.11218812559457,148.87633760772403L362.3541881255946,166.32301477846454L364.1691881255946,154.84628383725624L364.6531881255946,134.14090361298526L367.7991881255946,122.72887085195782L368.1621881255945,121.0843470418991L368.28318812559456,130.0475887914779L368.7671881255946,136.68948600110681L369.0091881255946,153.13873203104686L369.6141881255946,134.99212841152283L370.7031881255946,119.43814222247437L371.6711881255946,128.74899830415043L372.1551881255946,145.96524408511428L373.36518812559456,149.60615021076643L373.6071881255946,121.88169358479627L373.8491881255946,127.70367511153381L373.9701881255946,110.15831174333539L374.45418812559456,140.67666533572853L374.81718812559456,118.73798123643377L375.7851881255946,123.04691633426066L376.2691881255946,108.75833911857313L377.96318812559457,134.383806623542L378.68918812559457,123.4903757503329L379.2941881255946,159.0455709838847L379.41518812559457,169.25678270180495L379.65718812559453,158.3517313969856L380.02018812559453,143.87747636330047L380.26218812559455,148.34326971760126L380.50418812559457,161.48173611333004L380.62518812559455,160.64450554885073L381.4721881255946,158.2289385076179L381.8351881255945,153.6883940210984L382.44018812559455,154.0661523473447L384.7391881255946,162.48908705958428L385.9491881255945,160.99235617245043L386.67518812559456,156.72473183999915L387.40118812559456,148.26964115394998L387.8851881255946,125.26232446662448L388.0061881255945,144.78883951022928L389.33718812559454,152.36131925706474L389.4581881255945,162.15372363577518L391.2731881255945,171.72349247302347L392.48318812559455,186.01562156712055L393.57218812559455,179.97131408171467L395.6291881255945,200.7793876410085L397.8071881255945,169.8439816468846L397.92818812559454,179.2127384509538L398.17018812559456,164.87110906095248L399.38018812559454,154.3087428351853L399.8641881255945,157.66783742009864L401.07418812559456,163.7746988951678L402.0421881255945,135.67946204714616L402.16318812559456,173.807438232096L403.4941881255946,165.74959669620887L404.46218812559454,132.1797274184446L405.18818812559454,120.11797209629299L405.3091881255945,160.65281669581867L405.55118812559454,140.92475065813983L405.7931881255945,140.32613420676674L406.3981881255945,133.7252794223076L409.42318812559455,119.7574927822534L409.54418812559453,121.62433638125924L410.7541881255945,182.22189829971185L410.99618812559453,204.04608510326437L411.4801881255945,174.28499883105582L411.60118812559455,158.74413972367552L413.2951881255945,160.03307812429873L414.02118812559456,154.82868218487525L414.6261881255945,148.3862663695731L414.86818812559454,118.8728313266501L415.11018812559456,99.4278987722708L415.35218812559447,102.25964624800525L416.9251881255945,97.03825730211037L417.4091881255945,103.31992779504714L417.6511881255945,130.85204540147845L418.0141881255945,148.4214982124991L419.22418812559454,185.31255268109422L420.4341881255945,197.94998535004413L420.6761881255945,179.6222878431069L422.12818812559453,157.75669493937778L422.2491881255945,159.5953991756256L422.37018812559455,156.3750020655798L423.3381881255945,177.00054845226256L424.0641881255945,173.8892614847725L426.1211881255945,178.6955051848633L426.84718812559447,189.07278806797322L426.9681881255945,154.23394554808291L427.93618812559447,147.1342944207619L428.6621881255945,136.1980512030179L429.3881881255945,157.06002305725337L429.9931881255945,150.12290643377153L432.7761881255945,143.4848468173484L433.0181881255945,160.59136222471034L433.6231881255945,159.1843474731557L434.22818812559444,167.23836230844128L435.8011881255945,164.80676984013616L436.64818812559446,135.18787011095338L438.46318812559446,157.256837318427L439.9151881255945,152.31914736092858L440.2781881255945,173.85430703373817L441.0041881255945,180.18942699971632L441.97218812559447,156.6348294808593L442.0931881255945,167.9628906907673L442.3351881255945,168.28886169024108L443.4241881255945,139.4045023496174L446.2071881255945,135.04106270578407L446.32818812559447,173.49234477519747L446.4491881255945,176.76848272640953L447.2961881255945,181.01386119873584L448.6271881255945,155.6141268792383L448.86918812559446,160.22821199249603L450.32118812559446,163.43601490523827L450.4421881255945,165.9647138152066L450.8051881255945,190.5135744537599L451.04718812559446,169.70195455759458L451.16818812559444,164.888523402824L454.67718812559445,191.60012348529153L456.1291881255945,151.18189510780002L456.25018812559443,160.87453804117484L457.21818812559445,144.88258262154253L457.33918812559443,169.655783431348L458.0651881255945,156.8650569483894L458.42818812559443,157.29248873439556L459.1541881255945,176.50327348196387L459.63818812559447,162.65606679067915L461.6951881255944,153.7673136033924L461.93718812559445,148.96004502460804L462.0581881255945,178.254935071338L462.17918812559446,159.32518307947808L463.5101881255944,136.10694093511276L465.6881881255944,133.4685024386548L467.74518812559444,176.1266969129546L468.5921881255945,182.7284512516481L468.71318812559446,143.19754647647622L469.07618812559446,139.37995509223873L471.01218812559443,167.35583731537707L471.4961881255945,161.45205161630082L472.10118812559443,186.5933465764025L472.34318812559445,189.68785446371825L472.58518812559447,158.26119060861345L472.8271881255945,170.54996654176674L473.06918812559445,144.90928690359922L473.55318812559443,165.45382161032316L473.67418812559447,179.6876488338937L475.0051881255945,170.18621514560536L475.36818812559443,164.47125981697076L476.33618812559445,165.8045371385889L476.69918812559445,162.6655555678451L476.8201881255944,167.71511302127297L477.78818812559444,170.5050262500435L479.60318812559444,202.89322556250454L480.0871881255945,192.71214192083963L480.3291881255944,169.21494355239935L482.14418812559444,180.6865762563415L483.7171881255944,151.92721407420203L486.50018812559443,121.56698441445434L488.31518812559443,169.03610433955373L488.43618812559447,187.13086994237932L489.1621881255944,185.20661968493394L489.28318812559445,188.9681166267192L489.8881881255944,191.50712138206134L490.49318812559443,177.8542122655094L490.9771881255944,149.08022735847476L491.2191881255944,149.84616897956175L493.1551881255944,190.02269972293584L494.4861881255944,164.34747545732034L495.3331881255944,179.14119830075288L495.45418812559444,172.36943233869093L496.3011881255944,194.4715817687172L496.6641881255944,190.97873562732482L499.5681881255944,167.43755579740858L499.9311881255944,146.15062456037796L500.7781881255944,164.85249860166823L501.14118812559445,193.42562364442352L501.26218812559443,177.8487691282978L501.5041881255944,184.35412202531197L501.6251881255944,199.72352410165536L504.0451881255944,158.20467758119497L504.6501881255944,155.51303376575126L505.7391881255944,139.14540608473072L505.98118812559443,163.27269925379824L506.22318812559445,162.92050879476494L508.64318812559435,149.17969193679474L509.6111881255944,152.30029305049786L510.57918812559444,196.07422723365855L511.3051881255944,170.63533328226595L511.4261881255944,154.26298287715912L512.0311881255944,139.49109355389479L512.6361881255945,134.7396842412473L513.4831881255944,134.5053391266813L514.9351881255943,171.89701498259416L516.9921881255945,183.35513374687417L517.2341881255944,163.4447791372168L517.4761881255944,161.2657725634391L517.8391881255944,116.52419761010827L518.4441881255943,138.3584468977539L520.5011881255944,140.70354603088802L521.1061881255944,142.8971021500202L523.7681881255944,160.3329111716889L524.1311881255943,192.17385720557044L524.7361881255944,185.72312697433662L525.5831881255943,190.59258580062328L526.0671881255944,176.17261852589948L526.3091881255945,145.7006000331658L527.0351881255943,166.3303142762711L527.1561881255944,175.18849150453784L527.8821881255943,181.38321904663704L528.7291881255943,191.4437107766696L529.4551881255944,214.31179092134823L529.8181881255944,195.56023223935622L531.8751881255944,199.21954416532355L532.1171881255943,177.4840221786002L533.3271881255944,198.38747855977826L533.6901881255944,212.61789009600463L533.9321881255944,209.8068652434483L534.5371881255944,211.82932053760302L536.4731881255943,220.68891931681813L536.7151881255944,225.05609412313507L537.4411881255944,165.64504467495425L537.9251881255944,170.47951508844375L538.1671881255943,169.02782869563774L539.8611881255944,185.22935447286932L541.3131881255944,217.86405239274552L541.9181881255944,237.78669572391013L543.3701881255944,187.98542837864463L544.2171881255944,201.19740793501725L544.3381881255943,159.3815806656359L546.5161881255943,185.55510672679821L546.7581881255943,136.54193739797978L547.0001881255944,160.6898817288814L547.3631881255943,162.77917628152386L547.7261881255944,151.3053442225208L549.7831881255944,162.552122181333L551.1141881255943,194.70933259523144L551.2351881255943,153.3124520068694L551.9611881255944,174.6310149189589L552.8081881255944,163.05701489842062L555.7121881255944,167.7809794109391L556.4381881255943,177.8784762901421L556.6801881255943,161.61281059930428L559.2211881255944,184.6505643716001L559.5841881255943,142.69693937896497L560.0681881255944,143.79030946547644L560.1891881255943,175.9761018916818L560.3101881255944,197.83285723174342L561.0361881255943,185.5121780940137L561.3991881255944,171.23553828105364L561.6411881255942,138.3687458681918L562.7301881255943,152.11178477746972L563.5771881255944,185.88472175142417L564.1821881255944,181.22478665491283L565.1501881255944,197.20896904869687L565.6341881255943,215.43357196030922L566.1181881255943,173.8280390600592L567.6911881255944,205.0225740676821L567.9331881255943,209.94163681953955L568.2961881255943,186.1623004495051L569.7481881255943,219.4462686138283L570.2321881255943,200.83577349580497L570.8371881255944,223.87688318425344L571.0791881255943,191.44431437627406L572.2891881255943,189.34455426137797L572.5311881255943,200.78475789245266L572.7731881255943,146.54527394240418L574.3461881255944,173.46603469465964L576.2821881255943,175.59078690712118L576.8871881255943,192.00837066410267L577.7341881255943,157.03200107652475L580.7591881255943,165.74294779855717L580.8801881255944,198.0773612335408L581.0011881255942,191.6454293956965L581.8481881255942,212.77788368105172L583.0581881255944,198.1481357475038L584.0261881255943,210.03089670951272L584.8731881255943,227.79186937634833L585.3571881255942,220.21661312888477L586.6881881255943,182.0125454819383L587.4141881255944,182.19943154248278L588.1401881255942,193.04329344919535L590.3181881255942,194.80862291088027L590.8021881255943,183.09460567547657L592.1331881255943,170.86115630988127L592.7381881255943,172.33859090576465L593.3431881255942,173.3712719658765L593.8271881255943,181.0980332546841L593.9481881255944,223.47936180607581L595.2791881255943,182.7350335745139L595.4001881255944,159.25729859694144L596.7311881255944,171.52653520057777L596.9731881255943,205.2089753141575L597.0941881255943,162.83973073362304L597.9411881255943,183.82205647523207L598.3041881255944,161.56387396685852L598.4251881255943,191.00385648682868L598.5461881255942,172.22634237866274L601.9341881255943,161.2095866260129L603.9911881255942,183.63653487959303L604.5961881255944,140.23107863719088L604.7171881255942,151.89083938805737L604.9591881255943,138.6117972141569L605.9271881255943,178.19754907580224L612.9451881255943,150.52077171912555L614.7601881255944,147.6351167965137L616.0911881255944,153.92124312624142L616.2121881255943,181.93550849317006L616.4541881255943,169.00772957474663L616.6961881255943,188.1095814917287L617.0591881255942,177.9550036503711L617.1801881255943,219.2328735246129L617.4221881255942,216.25171103257742L620.2051881255943,203.27758396429692L620.8101881255943,170.20792419824295L621.1731881255943,173.22086571577753L621.5361881255942,182.6122654796614L622.1411881255943,172.41454136551843L623.4721881255944,158.21279665991094L624.5611881255943,191.4706159368582L624.9241881255942,198.68057121304838L625.0451881255942,204.2066960129788L626.1341881255943,177.78162277358248L626.8601881255943,177.72881367033793L628.7961881255943,138.90458212684783L629.5221881255943,197.86854639937835L630.0061881255942,228.87278579701825L631.0951881255942,195.40361627413319L631.3371881255943,202.69756889084675L632.4261881255942,217.5976145674729L632.9101881255942,180.94970604891807L633.6361881255943,184.71807849531103L634.2411881255942,184.1354454232298L634.9671881255944,178.87664374007628L636.0561881255943,199.24347920052134L636.9031881255943,169.52516800120193L637.3871881255942,163.8785796466312L638.4761881255941,186.78154412580184L640.2911881255942,219.55898079136236L641.1381881255942,200.26806316347043L641.8641881255943,217.8547868291367L642.3481881255943,212.20841490442132L642.4691881255942,203.11372214738867L644.7681881255942,225.33692286775735L644.8891881255943,213.73953069125946L645.1311881255942,218.10455014686596L645.8571881255942,170.98475252076034L646.2201881255943,169.19903822884967L649.4871881255942,157.74162427925245L650.2131881255942,192.76750273368285L650.6971881255943,207.23879257413276L651.0601881255942,220.23091077008976L652.0281881255943,221.66765030796418L652.2701881255942,211.2741854171023L654.3271881255941,213.65128559406597L654.4481881255942,237.2831026651187L656.7471881255942,243.29645561259946L656.8681881255943,197.7730368028556L657.2311881255943,242.87242893932753L658.0781881255942,221.81507942468613L658.3201881255942,157.7884060173229L659.2881881255942,192.74993989099656L659.5301881255942,185.99244907094382L659.6511881255942,190.47687297872312L661.2241881255943,205.51779263558558L661.4661881255942,185.94661717674262L662.6761881255942,182.69277041050063L663.0391881255943,184.790771341234L664.3701881255943,215.21697445323267L664.7331881255942,239.1949527901585L664.9751881255942,210.1951713413858L665.2171881255942,176.23822792530802L666.6691881255941,223.95859903844283L668.7261881255943,196.18343654778434L670.5411881255942,222.68281630634988L671.2671881255942,215.55089899928805L672.1141881255942,174.41932971551444L673.0821881255943,204.6651275537439L673.5661881255943,218.7646254236279L674.4131881255943,189.76175977254158L674.5341881255941,180.39496527050068L674.6551881255942,172.98437028543214L675.8651881255942,207.37934253519043L678.4061881255942,234.55772727130642L679.0111881255942,220.69893050486718L679.6161881255942,195.48246721856302L680.3421881255941,152.41731369212323L681.5521881255942,167.2530483890039L682.1571881255942,215.04678556905603L682.8831881255942,216.06872637676653L683.3671881255941,192.70310105502656L683.4881881255942,201.51120427079636L684.4561881255942,204.8945293540973L684.8191881255942,217.0943305983834L684.9401881255942,222.3583912613369L685.1821881255942,221.73147800395756L685.5451881255941,212.66814857675158L685.6661881255942,193.36500313905574L686.6341881255942,182.86425210309233L686.9971881255942,221.33848648288804L687.1181881255942,233.20359742708004L687.3601881255942,209.45394613241936L687.6021881255942,196.8140566884782L687.9651881255942,174.63010061076693L688.0861881255942,212.36800014605598L688.8121881255942,203.15335118009526L689.5381881255942,226.88616610960122L689.7801881255942,245.94616833024426L690.1431881255942,234.93983758560347L692.5631881255941,191.17955386736475L692.8051881255942,180.6183550071187L693.5311881255942,208.29633410100564L694.3781881255942,223.3195178891249L695.8301881255942,257.24321357573876L698.1291881255942,235.45182451759865L698.3711881255941,212.04846763758505L700.3071881255942,237.20363034749843L700.6701881255942,235.34344008587306L700.9121881255942,227.24251719781864L701.0331881255942,215.36006042696104L703.3321881255941,215.37820990341748L706.2361881255941,259.7530871066487L706.5991881255941,250.2659530962888L708.1721881255942,238.3981795450837L709.1401881255942,216.86416616738177L710.1081881255941,189.47638362522702L710.2291881255942,188.79360595326682L710.5921881255941,192.88666189952923L710.8341881255942,200.07390616140907L710.9551881255941,188.04030449923746L712.6491881255943,186.06058253544285L713.6171881255941,180.947800378742L716.2791881255941,191.1781517336779L717.0051881255941,217.50547983522918L717.3681881255942,251.49727712493208L718.2151881255942,242.01171065279098L719.7881881255942,248.43848123550987L720.0301881255942,243.8890060752229L720.1511881255941,211.37389026158212L720.9981881255942,211.2133650849213L723.1761881255942,240.69847402448792L725.1121881255941,205.02240338664035L725.9591881255941,189.149244104823L726.5641881255941,208.633901659207L726.6851881255942,207.43360141186903L727.4111881255941,226.02533990360317L728.9841881255941,208.40714500731036L729.2261881255941,195.45534313606294L729.9521881255941,173.7852523087245L733.0981881255941,205.17787344861344L733.7031881255941,192.40529946506595L735.2761881255941,207.782570809801L735.7601881255941,221.62898929214865L737.9381881255941,219.18792680733839L738.9061881255942,210.21878177479567L741.6891881255941,222.5349201062224L742.0521881255942,259.7206487183676L742.173188125594,244.78095575774753L742.4151881255941,209.0902532321076L742.6571881255941,183.87456647700805L742.7781881255942,206.50349993252416L743.2621881255941,181.12336021564178L745.4401881255941,210.4416006862788L745.9241881255941,241.76071898752105L748.707188125594,240.48007535759416L750.2801881255941,197.59487075159802L752.216188125594,220.79752851511574L753.5471881255941,241.277569675912L753.668188125594,258.41954725706387L755.4831881255941,176.11621714124897L755.846188125594,200.76285400141785L757.1771881255941,189.02331774975156L757.2981881255942,201.55125289343582L757.6611881255941,190.95353129074235L759.7181881255941,204.71977950130668L760.202188125594,246.56367993406957L762.6221881255941,237.0968914457869L762.8641881255941,243.92176644432436L764.558188125594,265.2814567537345L765.1631881255942,254.89688479664966L766.8571881255941,224.80919105324563L766.9781881255941,228.200244507826L767.2201881255941,215.57436413321693L767.8251881255941,230.06599517969192L771.2131881255941,219.57821833730085L772.3021881255942,222.86990644176618L773.1491881255942,238.84539161165077L773.6331881255941,225.05492773730867L774.3591881255941,261.70673223836457L775.0851881255941,233.3913092350715L775.6901881255941,219.98791053563477L776.053188125594,227.21954532720335L776.2951881255941,226.74607760519012L778.110188125594,220.13827079476653L779.1991881255941,206.3526376309061L780.1671881255941,183.86692839451592L781.3771881255941,216.6703034203093L782.2241881255941,229.46230425060455L782.8291881255941,212.4177901072104L783.0711881255941,224.36931953621323L783.434188125594,217.1427074008291L784.5231881255941,244.64412467732296L784.765188125594,229.56735277263488L785.4911881255941,219.94989070404074L786.943188125594,245.61954527021186L787.548188125594,244.3451128722038L788.5161881255941,222.62663406312893L788.7581881255941,258.44940691753135L789.968188125594,251.29071357641578L790.2101881255941,226.91488443545472L792.0251881255941,221.51954880848314L793.3561881255941,229.05657934300592L793.598188125594,244.40087846663715L794.082188125594,236.43045064711455L795.5341881255941,271.54933500287916L795.8971881255941,251.93971499854723L800.0111881255941,252.4430021771616L800.8581881255941,253.8709675453959L801.221188125594,251.00175160718726L801.7051881255941,218.91597233799345L803.399188125594,223.80958810853917L804.730188125594,229.9278591066638L805.577188125594,223.0761028945033L806.424188125594,237.13764566951124L807.634188125594,243.11873174825809L807.997188125594,208.0775619996317L808.602188125594,218.79048241150363L809.2071881255941,219.03901646175783L809.933188125594,216.3693661018102L810.175188125594,243.66898570258383L811.385188125594,252.92295251424122L811.506188125594,287.0822995974289L813.563188125594,264.53857881921147L813.9261881255941,290.24627202862723L814.7731881255941,239.1504886222295L816.2251881255941,208.70779185185881L818.040188125594,230.0828871475623L818.2821881255941,229.64135530330148L819.129188125594,191.9016933073403L820.339188125594,225.77807223433695L821.307188125594,236.45377718643633L821.549188125594,220.71965772109598L821.7911881255941,232.7809545355444L822.154188125594,240.6432889978096L822.3961881255941,244.33610213931055L823.485188125594,254.32134101526958L824.695188125594,235.9388871003967L824.8161881255941,235.15793970340792L826.026188125594,252.2850263250293L826.510188125594,185.35102849255082L826.631188125594,211.72215020741692L828.9301881255941,190.32771274553718L829.535188125594,202.8349334013442L829.7771881255941,206.68774163253588L829.898188125594,212.17641517293552L830.261188125594,175.2872263185066L831.350188125594,181.67647129900143L833.5281881255939,227.44452546655907L835.948188125594,249.7329311711341L836.5531881255939,220.43297587943164L837.037188125594,216.1228271138952L837.642188125594,229.01497729549143L838.368188125594,206.55724391354312L838.4891881255941,230.93016438547318L838.610188125594,230.4347301718964L838.973188125594,231.9123126689579L839.336188125594,227.15473565657462L841.030188125594,216.60665354902858L841.635188125594,221.47842846434116L841.998188125594,213.20942483671587L844.055188125594,192.70171090019178L844.176188125594,203.96012651410769L844.660188125594,223.87937704670296L845.2651881255939,209.32458171272586L846.1121881255939,184.39603209565246L847.201188125594,163.13853582836853L847.4431881255939,173.126939774694L848.653188125594,230.30327643875447L849.3791881255939,192.5365042985486L849.6211881255939,201.38334437669963L850.347188125594,181.14900800916124L850.589188125594,223.68144924894153L850.831188125594,236.26157678692272L851.678188125594,215.992759302982L852.2831881255939,217.8751306931109L852.525188125594,193.31440278942551L852.767188125594,177.7123360881078L853.7351881255939,175.4934144114335L855.550188125594,193.91449146295477L856.034188125594,231.07907245110044L856.639188125594,175.04334457303972L857.002188125594,177.23470081495373L858.9381881255939,198.68862302720436L860.1481881255941,214.07690643496858L860.2691881255939,202.0413983721745L860.511188125594,236.88344845583947L861.237188125594,227.26326322855704L861.358188125594,251.35612167951393L861.9631881255939,236.7371068783379L862.8101881255939,223.61843027454873L863.415188125594,220.98167322203477L864.262188125594,239.94803856144952L864.9881881255939,190.9442080344153L866.561188125594,204.6603705641425L867.4081881255939,247.2763584414763L869.707188125594,259.2181582849571L872.127188125594,270.0530691808833L872.4901881255939,219.77429660413475L872.974188125594,231.36935872642107L873.095188125594,240.26957532108196L873.9421881255939,269.4737604822702L875.999188125594,255.30815946312285L877.330188125594,289.3512750526923L878.6611881255939,241.714752338524L879.508188125594,265.7450959522264L880.234188125594,278.2844580500132L883.138188125594,278.38244273651117L885.921188125594,207.06497074056304L887.0101881255939,202.2531999110061L888.825188125594,227.03347359109813L888.946188125594,251.0966670101978L889.7931881255939,263.3486264881712L890.277188125594,287.60982989349947L891.4871881255939,271.5129663358431L891.850188125594,287.5774339270339L891.9711881255939,289.4624250019204L893.181188125594,272.6661298271347L893.6651881255939,238.41117386255232L894.633188125594,234.0309636314288L894.7541881255939,265.0614720123321L895.238188125594,256.0103109745133L896.3271881255939,244.89546155793767L896.4481881255939,240.73782567355627L897.6581881255939,272.37330650845973L897.7791881255939,277.8234236636909L897.900188125594,247.27674300124758L898.8681881255939,263.816833387275L899.3521881255939,270.8814356573741L901.2881881255939,259.434691486215L902.256188125594,225.08309205077998L903.8291881255939,251.84587320563583L904.1921881255939,214.13776826840652L904.676188125594,234.616958612649L904.9181881255939,259.00964173398955L905.0391881255939,247.51698069462316L905.4021881255939,282.48046796191875L906.4911881255939,230.56933164454563L906.612188125594,259.1328462538111L907.701188125594,280.09102876700535L908.0641881255939,281.42791637665215L909.2741881255939,265.93960399615094L909.8791881255939,277.0712412493233L913.267188125594,275.7806463364408L914.2351881255938,248.99204111295418L915.3241881255939,252.21482996517528L915.5661881255938,245.83009292761568L916.0501881255939,267.69908056958207L916.776188125594,225.51763196823794L917.018188125594,221.8048291869788L917.1391881255939,252.06423820120705L917.9861881255939,269.7829079875669L918.349188125594,292.76186526767L918.954188125594,295.69160711791704L919.3171881255939,267.8332139677958L919.4381881255938,247.0932354889169L920.285188125594,256.72585248178996L920.7691881255938,231.55263279866824L921.2531881255939,204.9076491241711L922.463188125594,252.22332539286214L922.5841881255939,179.4473756624375L924.0361881255939,221.9336731661789L924.5201881255939,203.96594129435402L925.3671881255939,234.1483879180247L925.8511881255939,251.26946444515983L927.1821881255939,278.4139908450684L928.6341881255939,276.6838503961034L930.5701881255939,270.44270077905287L933.1111881255938,286.6506716171144L933.5951881255938,282.79614398887816L935.4101881255939,286.74349725904347L936.0151881255939,302.6473869070711L936.3781881255939,273.3878349479777L937.1041881255939,272.2049955323943L937.5881881255939,211.78621600299294L938.0721881255939,190.151757462751L939.0401881255939,187.50097564152344L939.7661881255939,242.82130393018852L939.8871881255939,193.1842671854683L940.008188125594,223.08576663331147L941.9441881255939,247.8969747489016L942.7911881255939,274.65520263758873L943.0331881255939,267.767716074826L943.7591881255938,271.1730979298168L944.7271881255939,294.0761384203368L945.0901881255938,295.67258877418084L945.5741881255939,291.8923912641667L945.8161881255938,294.78680112996915L946.7841881255938,251.56667610485476L947.7521881255939,227.87956969482767L948.1151881255938,232.35945997021057L949.2041881255939,268.15574987217315" fill="none"></path></g></g></g></g><g opacity="0.2"><g><g><g><path style="fill: none;" stroke="rgb(255, 112, 67)" stroke-width="2px" d="M109.34318812559489,11.690698133297701L110.91618812559489,75.07263611395024L111.64218812559488,80.93547724325333L113.57818812559488,45.72601650793183L113.82018812559488,69.55120800573485L114.18318812559488,77.53678797323374L115.15118812559489,78.99784945089488L115.51418812559488,77.10450171072148L117.32918812559488,106.53427408773598L117.69218812559487,104.1932892664164L120.11218812559487,97.80521582204989L121.08018812559487,88.92114733297507L121.56418812559487,85.9034347398964L123.98418812559487,103.30044840414223L125.55718812559486,21.97808979589547L126.88818812559487,125.69030831892209L127.49318812559487,102.19200514394936L127.85618812559485,91.51913069326565L128.94518812559485,114.56662748892018L130.27618812559487,136.38213847715588L130.88118812559486,102.9388480051249L131.12318812559485,57.06342218954211L131.24418812559486,117.55580137808033L131.72818812559487,75.95805691320561L132.69618812559486,146.5841393335555L133.78518812559486,150.10327695448146L134.39018812559488,76.98376797277598L135.72118812559486,72.35635231573247L136.44718812559483,120.16360806066706L137.05218812559485,131.10319923002447L138.86718812559485,97.73143576223538L139.59318812559485,93.4268078668801L140.19818812559484,25.597398267575215L141.04518812559485,61.72859905798089L141.52918812559486,117.14619587499806L141.77118812559485,121.1975202425213L144.07018812559485,117.4237422807903L144.67518812559484,96.10806416113064L145.40118812559484,50.65218733389014L146.00618812559483,122.45169113714414L146.24818812559485,82.05185125906138L147.21618812559484,121.17829416830256L148.66818812559484,118.17425011236378L149.75718812559484,138.1222483976576L150.72518812559483,73.25817535955571L152.66118812559483,88.31282232839743L153.14518812559484,78.68176077444224L154.35518812559482,99.39932774145296L159.67918812559483,91.89178608495877L159.80018812559484,120.1049384935589L161.85718812559483,81.63125084478526L162.09918812559482,136.07560275633065L162.22018812559483,94.21745012838528L162.58318812559483,82.60360954839854L164.39818812559483,88.9974808557717L164.7611881255948,99.946670041868L164.8821881255948,72.32234619695805L166.09218812559482,125.45770286161618L168.14918812559483,109.3791322572917L168.3911881255948,97.60138939459011L170.93218812559482,145.64993237097005L171.29518812559482,114.3794135912151L172.2631881255948,84.27850102026139L172.9891881255948,100.3749909265726L173.2311881255948,155.91094826299897L173.59418812559483,128.55919908125122L174.3201881255948,103.10908888418373L174.92518812559481,69.60149620611327L176.13518812559482,149.25283859808192L176.8611881255948,170.68098925192126L178.0711881255948,108.78102110464272L178.7971881255948,91.97133396703879L179.0391881255948,110.10476635534462L179.6441881255948,177.52976749975457L179.76518812559482,109.76119040090742L181.5801881255948,186.5900850160816L183.75818812559478,119.29083441335871L184.0001881255948,83.46064184744034L185.4521881255948,111.41484306890669L186.29918812559478,129.7264470918866L186.4201881255948,118.54336069662287L186.6621881255948,78.52482794363169L187.0251881255948,98.27105759222201L187.2671881255948,47.11750362951386L188.7191881255948,87.0653204782692L189.0821881255948,79.1410536630836L189.56618812559478,107.97241448003945L189.92918812559478,135.27623365957467L190.2921881255948,112.01166246969404L190.77618812559479,100.61147163946322L191.3811881255948,145.09921048719625L191.9861881255948,138.5332808359358L195.1321881255948,137.46606849271984L195.6161881255948,116.89379356939503L196.1001881255948,97.72365521032498L196.22118812559478,119.85211561758234L197.0681881255948,93.49632214147732L198.15718812559479,130.0139069421979L198.6411881255948,156.44420145590058L199.12518812559478,110.03750513632002L199.7301881255948,101.15328644354037L200.21418812559477,109.17611692983803L201.30318812559477,78.62970017034678L201.78718812559478,177.2282636030413L201.9081881255948,74.74435089666508L202.02918812559477,115.82803820211598L202.2711881255948,137.42892311651437L203.11818812559477,103.63642405111489L203.72318812559476,140.16117356855602L203.96518812559478,69.88580177862303L204.5701881255948,113.90918587286177L204.81218812559476,146.32188366491536L205.29618812559477,144.86131785948018L205.78018812559478,115.54796837408253L206.50618812559478,105.82164763052162L206.62718812559478,147.20153664190514L209.41018812559477,118.27548740942188L209.89418812559475,88.13194702703635L213.88718812559478,141.11815141279433L214.49218812559477,120.40408419210621L214.73418812559476,60.221605287381465L215.46018812559475,135.4339024885389L216.42818812559477,152.53384326536406L217.15418812559477,127.42924665052612L217.63818812559478,107.63776062566933L218.48518812559476,94.29567621786282L218.72718812559478,177.58876751501336L219.45318812559475,156.63827966291657L219.69518812559477,116.72120951254078L221.38918812559473,108.7987751825541L221.51018812559474,95.19533632833645L222.72018812559475,109.2703246935099L223.08318812559475,116.75365351278492L224.17218812559474,117.08374117452809L224.65618812559475,117.24466942388722L225.14018812559473,115.97379587728688L226.22918812559473,124.37383292753412L226.35018812559474,90.76522825796286L227.07618812559477,189.93382977087285L227.19718812559472,96.29867266256497L227.80218812559474,133.33491085607736L229.25418812559474,120.6731290682049L229.98018812559474,97.03437040884188L230.34318812559474,111.69650505621138L231.43218812559473,114.1017770631999L231.79518812559476,117.74400662023731L232.76318812559475,140.25009416181777L234.21518812559475,133.62505935270516L235.06218812559473,94.13078259069607L236.6351881255947,114.04433916647145L237.36118812559474,83.42065762121348L237.72418812559474,108.75437496740517L237.96618812559473,70.7171192033972L238.45018812559474,108.08080147344765L238.93418812559474,74.42805193502568L239.17618812559473,104.12428568441561L239.78118812559472,124.59969423849302L239.90218812559473,68.89878319341796L240.99118812559473,114.75699566442671L241.71718812559473,154.51997183401338L242.20118812559474,57.82576607305651L242.32218812559475,166.9965524538255L243.53218812559473,129.64306901533328L244.13718812559472,146.60292981703023L245.83118812559474,189.1289932592609L248.61418812559472,117.28897951681324L249.09818812559473,123.15836952764704L249.2191881255947,146.2988724573348L249.34018812559472,132.01810501653875L251.51818812559472,128.60421513158997L252.97018812559472,109.1495909555644L253.09118812559473,103.26079462606606L253.81718812559473,133.53202317793097L254.6641881255947,160.52941177923435L257.8101881255947,141.25498698789812L258.05218812559474,107.66681002218422L259.2621881255947,106.73758982259926L260.59318812559474,54.260230527707336L260.9561881255947,101.26404665548495L261.3191881255947,87.36674927313004L263.7391881255947,110.60022829611006L264.4651881255947,127.90620349485596L265.31218812559473,161.76127742368934L266.0381881255947,150.65814446050868L267.2481881255947,106.36610601980385L267.9741881255947,90.63136671621481L268.3371881255947,117.32749174673268L269.30518812559467,132.98221753675668L269.66818812559467,165.54929469663858L270.0311881255947,119.00388525564387L270.39418812559467,107.13439797002968L270.5151881255947,151.03399919111476L272.69318812559465,180.18891380865355L276.3231881255947,92.08113287527249L276.6861881255947,121.19151209432795L276.8071881255947,60.04385422308093L277.0491881255947,112.79569576818648L277.1701881255947,118.15144918996998L279.8321881255947,140.61301635343764L281.28418812559465,92.11883400518576L281.5261881255947,102.56604240972689L282.01018812559465,100.1597490175455L282.4941881255947,91.54601715643088L282.9781881255947,69.85729311544554L286.0031881255947,122.62718914587214L286.1241881255947,167.3742997511125L287.45518812559465,118.52287291128346L288.42318812559466,157.2677984102463L288.9071881255947,197.25788258154188L289.1491881255947,162.0747225149369L290.3591881255947,119.49189709264948L291.2061881255947,178.5843326910235L293.0211881255947,124.6015117033215L293.5051881255947,159.16116117079017L296.40918812559465,91.77727078039328L296.5301881255947,173.83402036268484L298.46618812559467,91.94048212606589L298.5871881255947,125.14287589628415L299.6761881255947,137.82218645651074L300.40218812559465,90.6729130609719L300.88618812559463,134.26057122785772L301.9751881255946,174.00199316580066L302.82218812559466,107.10465763647255L302.9431881255947,110.90865658361616L304.5161881255946,118.80612705785938L305.6051881255947,176.32942961294427L306.21018812559464,168.74621532995465L306.81518812559466,153.7415711744522L307.1781881255946,127.94695375997742L307.7831881255947,94.21633862096951L308.1461881255947,152.68536876280058L308.63018812559466,160.19139336187598L309.5981881255946,158.98962853986973L310.56618812559464,62.702489839383475L311.4131881255946,183.4756862982013L312.26018812559465,133.08764551717962L313.34918812559465,141.04952334005569L313.83318812559463,134.4493322237226L313.9541881255946,142.4125318392012L314.07518812559465,95.76337669927761L314.31718812559467,129.2100317342969L314.6801881255946,208.54394863683987L315.52718812559465,207.77682827551172L316.6161881255946,174.68124435980096L317.8261881255946,148.81579087812648L318.31018812559466,95.27227066595242L318.5521881255947,83.57981346685563L318.9151881255946,107.34873865682778L319.52018812559464,79.53377626974253L319.8831881255946,128.89738272268497L320.0041881255946,127.34172295171936L320.1251881255946,186.5832507475116L322.42418812559464,84.11805342275773L323.51318812559464,170.14728544790512L324.23918812559464,99.00282000143221L325.0861881255946,155.4826724394058L325.2071881255946,205.6256859167318L326.2961881255946,166.04113672811746L327.1431881255946,167.02486585218674L328.59518812559463,128.83602450926028L329.68418812559463,202.2662749155263L330.16818812559467,165.79516314108136L331.3781881255946,122.33786676962094L331.8621881255946,149.61682723600612L332.4671881255946,142.88127254087664L332.9511881255946,195.51144908506666L334.5241881255946,153.46847079832307L334.8871881255946,146.49436257917625L335.6131881255946,120.13741253454396L335.7341881255946,142.4312021597121L335.8551881255946,146.77826260168294L339.9691881255946,146.72243188459615L340.69518812559465,147.33970902998192L342.7521881255946,117.8106069429607L342.9941881255946,191.3610803945759L343.2361881255946,164.46721218664408L343.9621881255946,88.05687521536032L344.3251881255946,152.2195570333694L344.5671881255946,185.59992717344545L344.93018812559455,186.1706862314441L346.7451881255946,94.20771692831204L346.9871881255946,97.99405191976712L348.43918812559457,93.48187254507224L348.5601881255946,72.57730196554326L348.6811881255946,115.48554371435347L350.8591881255946,96.53377150137112L351.34318812559457,126.05712078649717L352.3111881255946,128.92103980619632L352.7951881255946,40.972159372159126L354.0051881255946,204.81234787542627L354.3681881255946,104.88068150121865L354.7311881255946,172.15989492971667L355.0941881255946,60.21148155767571L357.9981881255946,110.42578171331581L359.4501881255946,153.7759528024887L359.57118812559463,155.10735844213713L359.9341881255946,234.3046500547631L360.05518812559455,140.70686362821795L360.2971881255946,137.4936759336683L360.5391881255946,199.72344635565082L361.0231881255946,114.40371655065718L361.5071881255946,186.96720145780827L362.11218812559457,126.29956458646973L362.3541881255946,192.4930305345753L364.1691881255946,137.63118742544384L364.6531881255946,103.0828332765787L367.7991881255946,105.61082171041664L368.1621881255945,118.6175613268108L368.28318812559456,143.49245141584612L368.7671881255946,146.65233181555013L369.0091881255946,177.812601075957L369.6141881255946,107.77222298223671L370.7031881255946,96.10716293890164L371.6711881255946,142.7152824266646L372.1551881255946,171.78961275655996L373.36518812559456,155.0675093992447L373.6071881255946,80.29500864584116L373.8491881255946,136.4366474016401L373.9701881255946,83.84026669103775L374.45418812559456,186.45419572431825L374.81718812559456,85.82995508749161L375.7851881255946,129.510318981001L376.2691881255946,87.32547329504166L377.96318812559457,172.8220078809954L378.68918812559457,107.15022944051918L379.2941881255946,212.37836383421234L379.41518812559457,184.57360027868532L379.65718812559453,141.99415443975664L380.02018812559453,122.16609381277274L380.26218812559455,155.04195974905244L380.50418812559457,181.1894357069232L380.62518812559455,159.3886597021317L381.4721881255946,154.60558794576875L381.8351881255945,146.87757729131917L382.44018812559455,154.63278983671415L384.7391881255946,175.12348912794363L385.9491881255945,158.7472598417496L386.67518812559456,150.32329534132228L387.40118812559456,135.58700512487619L387.8851881255946,90.7513494356362L388.0061881255945,174.0786120756365L389.33718812559454,163.7200388773179L389.4581881255945,176.84233020384087L391.2731881255945,186.07814572889592L392.48318812559455,207.45381520826626L393.57218812559455,170.90485285360583L395.6291881255945,231.99149797994926L397.8071881255945,123.44087265569883L397.92818812559454,193.2658736570576L398.17018812559456,143.3586649759505L399.38018812559454,138.46519349653457L399.8641881255945,162.70647929746866L401.07418812559456,172.93499110777148L402.0421881255945,93.5366067751138L402.16318812559456,230.99940250952076L403.4941881255946,153.66283439237822L404.46218812559454,81.8249235017982L405.18818812559454,102.02533911306551L405.3091881255945,221.45508359510723L405.55118812559454,111.33265160162154L405.7931881255945,139.42820952970715L406.3981881255945,123.82399724561884L409.42318812559455,98.80581282217196L409.54418812559453,124.42460177976804L410.7541881255945,273.1182411773908L410.99618812559453,236.7823653085931L411.4801881255945,129.64336942274295L411.60118812559455,135.43285106260507L413.2951881255945,161.96648572523353L414.02118812559456,147.02208827573995L414.6261881255945,138.72264264662L414.86818812559454,74.60267876226567L415.11018812559456,70.26049994070189L415.35218812559447,106.50726746160683L416.9251881255945,89.20617388326804L417.4091881255945,112.74243353445235L417.6511881255945,172.15022181112536L418.0141881255945,174.77567742903005L419.22418812559454,240.64913438398682L420.4341881255945,216.90613435346899L420.6761881255945,152.13074158270106L422.12818812559453,124.95830558378415L422.2491881255945,162.35345552999732L422.37018812559455,151.54440640051112L423.3381881255945,207.93886803228662L424.0641881255945,169.22233103353747L426.1211881255945,185.9048707349994L426.84718812559447,204.63871239263815L426.9681881255945,101.9756817682474L427.93618812559447,136.48481772978036L428.6621881255945,119.79368637640187L429.3881881255945,188.35298083860664L429.9931881255945,139.7172314985487L432.7761881255945,133.52775739271368L433.0181881255945,186.25113533575322L433.6231881255945,157.0738253458237L434.22818812559444,179.3193845613696L435.8011881255945,161.1593811376786L436.64818812559446,90.75952051717917L438.46318812559446,190.36028812963752L439.9151881255945,144.912612424681L440.2781881255945,206.15704654295251L441.0041881255945,189.69210694868354L441.97218812559447,121.3029332025738L442.0931881255945,184.9549825056293L442.3351881255945,168.77781818945175L443.4241881255945,96.07796333868191L446.2071881255945,128.4959032400342L446.32818812559447,231.16926787931752L446.4491881255945,181.68268965322753L447.2961881255945,187.3819289072254L448.6271881255945,117.51452539999195L448.86918812559446,167.14933966238263L450.32118812559446,168.24771927435165L450.4421881255945,169.75776218015915L450.8051881255945,227.33686541158983L451.04718812559446,138.4845247133467L451.16818812559444,157.66837667066804L454.67718812559445,231.6675236089928L456.1291881255945,90.55455254156271L456.25018812559443,175.41350244123709L457.21818812559445,120.89464949209406L457.33918812559443,206.81558464605615L458.0651881255945,137.6789672239515L458.42818812559443,157.93363641340488L459.1541881255945,205.31945060331626L459.63818812559447,141.885256753752L461.6951881255944,140.4341838224623L461.93718812559445,141.74914215643142L462.0581881255945,222.1972701414329L462.17918812559446,130.93055509168826L463.5101881255944,101.27957771856478L465.6881881255944,129.51084469396793L467.74518812559444,240.1139886244043L468.5921881255945,192.6310827596882L468.71318812559446,83.90118931371842L469.07618812559446,133.65356801588263L471.01218812559443,209.3196606500845L471.4961881255945,152.59637306768644L472.10118812559443,224.305289016555L472.34318812559445,194.32961629469187L472.58518812559447,111.12119482595625L472.8271881255945,188.98313044149663L473.06918812559445,106.44826744634804L473.55318812559443,196.27062367040907L473.67418812559447,201.03838966924945L475.0051881255945,155.93406461317292L475.36818812559443,155.89882682401887L476.33618812559445,167.80445312101608L476.69918812559445,157.95708321172944L476.8201881255944,175.2894492014147L477.78818812559444,174.6898960931994L479.60318812559444,251.4755245311961L480.0871881255945,177.44051645834222L480.3291881255944,133.96914599973886L482.14418812559444,197.8940253122548L483.7171881255944,108.78817080099282L486.50018812559443,76.0266399248328L488.31518812559443,240.23978422720276L488.43618812559447,214.27301834661776L489.1621881255944,182.32024429876586L489.28318812559445,194.6103620393971L489.8881881255944,195.3156285150746L490.49318812559443,157.37484859068147L490.9771881255944,105.91924999792275L491.2191881255944,150.99508141119227L493.1551881255944,250.28749583799694L494.4861881255944,125.83463905889707L495.3331881255944,201.33178256590168L495.45418812559444,162.2117833955979L496.3011881255944,227.62480591375657L496.6641881255944,185.73946641523622L499.5681881255944,132.1257860525342L499.9311881255944,114.22022770483198L500.7781881255944,192.90530966360362L501.14118812559445,236.28531120855646L501.26218812559443,154.48348735410917L501.5041881255944,194.11215137083323L501.6251881255944,222.77762721617046L504.0451881255944,95.92640780050442L504.6501881255944,151.4755680425857L505.7391881255944,114.5939645631999L505.98118812559443,199.46363900739945L506.22318812559445,162.39222310621497L508.64318812559435,128.56846664983948L509.6111881255944,156.98119472105256L510.57918812559444,261.7351285083996L511.3051881255944,132.47699235517703L511.4261881255944,129.7044572694989L512.0311881255944,117.3332595689983L512.6361881255945,127.61257027227603L513.4831881255944,134.1538214548322L514.9351881255943,227.98452876646348L516.9921881255945,200.54231189329425L517.2341881255944,133.57924722273077L517.4761881255944,157.99726270277256L517.8391881255944,49.411835180112064L518.4441881255943,171.10982082922226L520.5011881255944,144.2211947305892L521.1061881255944,146.18743632871846L523.7681881255944,186.48662470419194L524.1311881255943,239.93527625639283L524.7361881255944,176.0470316274859L525.5831881255943,197.89677404005326L526.0671881255944,154.54266761381376L526.3091881255945,99.99257229406527L527.0351881255943,197.2748856409291L527.1561881255944,188.4757573469379L527.8821881255943,190.67531035978584L528.7291881255943,206.53444837171838L529.4551881255944,248.61391113836618L529.8181881255944,167.43289421636825L531.8751881255944,204.7085120542745L532.1171881255943,144.88073919851522L533.3271881255944,229.7426631315453L533.6901881255944,233.96350740034418L533.9321881255944,205.5903279646139L534.5371881255944,214.86300347883517L536.4731881255943,233.9783174856408L536.7151881255944,231.6068563326104L537.4411881255944,76.5284705026832L537.9251881255944,177.73122070867794L538.1671881255943,166.85029910642868L539.8611881255944,209.5316431387167L541.3131881255944,266.8160992725598L541.9181881255944,267.67066072065705L543.3701881255944,113.28352736074635L544.2171881255944,221.01537726957622L544.3381881255943,96.65783976156405L546.5161881255943,224.8153958185417L546.7581881255943,63.02218340475213L547.0001881255944,196.9117982252339L547.3631881255943,165.91311811048746L547.7261881255944,134.0945961340162L549.7831881255944,179.42228911955138L551.1141881255943,242.94514821607913L551.2351881255943,91.21713112432639L551.9611881255944,206.60885928709314L552.8081881255944,145.69601486761314L555.7121881255944,174.8669261797167L556.4381881255943,193.02472160894663L556.6801881255943,137.2143120630476L559.2211881255944,219.20719503004372L559.5841881255943,79.76650189001231L560.0681881255944,145.43036459524373L560.1891881255943,224.25479053098982L560.3101881255944,230.61799024183583L561.0361881255943,167.03115938741925L561.3991881255944,149.8205785616134L561.6411881255942,89.06855724889914L562.7301881255943,172.72634314138662L563.5771881255944,236.54412721235593L564.1821881255944,174.23488401014578L565.1501881255944,221.18524263937297L565.6341881255943,242.7704763277277L566.1181881255943,111.41973970968428L567.6911881255944,251.81437657911636L567.9331881255943,217.3202309473258L568.2961881255943,150.49329589445335L569.7481881255943,269.3722208603131L570.2321881255943,172.92003081877002L570.8371881255944,258.43854771692617L571.0791881255943,142.79546116430495L572.2891881255943,186.19491408903383L572.5311881255943,217.9450633390647L572.7731881255943,65.18604801733147L574.3461881255944,213.84717582304293L576.2821881255943,178.77791522581353L576.8871881255943,216.63474629957494L577.7341881255943,104.56744669515786L580.7591881255943,178.80936788160577L580.8801881255944,246.57898138601632L581.0011881255942,181.99753163893004L581.8481881255942,244.47656510908453L583.0581881255944,176.2035138471819L584.0261881255943,227.8550381525261L584.8731881255943,254.4333283766017L585.3571881255942,208.85372875768948L586.6881881255943,124.70644401151853L587.4141881255944,182.47976063329955L588.1401881255942,209.3090863092642L590.3181881255942,197.45661710340775L590.8021881255943,165.52357982237103L592.1331881255943,152.51098226148832L592.7381881255943,174.55474279958975L593.3431881255942,174.92029355604424L593.8271881255943,192.6881751878956L593.9481881255944,287.0513546331633L595.2791881255943,121.61854122717097L595.4001881255944,124.04069613058283L596.7311881255944,189.93039010603218L596.9731881255943,255.73263548452715L597.0941881255943,99.28586386282137L597.9411881255943,215.2955450876456L598.3041881255944,128.17660020429813L598.4251881255943,235.163830266784L598.5461881255942,144.06007121641375L601.9341881255943,144.68445299703816L603.9911881255942,217.27695725996315L604.5961881255944,75.12289427358769L604.7171881255942,169.38048051435715L604.9591881255943,118.69323395330622L605.9271881255943,237.57617686827024L612.9451881255943,109.00560568411049L614.7601881255944,143.30663441259603L616.0911881255944,163.3504326208329L616.2121881255943,223.95690654356306L616.4541881255943,149.61606119711146L616.6961881255943,216.7623593672019L617.0591881255942,162.72313688833472L617.1801881255943,281.14967833597547L617.4221881255942,211.77996729452423L620.2051881255943,183.81639336187624L620.8101881255943,120.60343454916188L621.1731881255943,177.74027799207943L621.5361881255942,196.69936512548722L622.1411881255943,157.1179551943039L623.4721881255944,136.91017960149972L624.5611881255943,241.35734485227906L624.9241881255942,209.49550412733365L625.0451881255942,212.49588321287445L626.1341881255943,138.14401291448803L626.8601881255943,177.64960001547112L628.7961881255943,80.66823481161265L629.5221881255943,286.314492808174L630.0061881255942,275.37914489347816L631.0951881255942,145.1998619898055L631.3371881255943,213.63849781591708L632.4261881255942,239.9476830824121L632.9101881255942,125.97784327108579L633.6361881255943,190.3706371649006L634.2411881255942,183.26149581510805L634.9671881255944,170.98844121534594L636.0561881255943,229.79373239118885L636.9031881255943,124.94770120222287L637.3871881255942,155.4086971147751L638.4761881255941,221.1359908445579L640.2911881255942,268.7251357897031L641.1381881255942,171.33168672163256L641.8641881255943,244.23487232763614L642.3481881255943,203.73885701734824L642.4691881255942,189.47168301183964L644.7681881255942,258.67172394831044L644.8891881255943,196.34344242651258L645.1311881255942,224.6520793302757L645.8571881255942,100.30505608160189L646.2201881255943,166.5204667909837L649.4871881255942,140.55550335485674L650.2131881255942,245.30632041532843L650.6971881255943,228.9457273348076L651.0601881255942,239.71908806402524L652.0281881255943,223.82275961477583L652.2701881255942,195.68398808080946L654.3271881255941,217.2169358595115L654.4481881255942,272.73082827169776L656.7471881255942,252.31648503382064L656.8681881255943,129.48790858823978L657.2311881255943,310.5215171440355L658.0781881255942,190.22905515272407L658.3201881255942,61.74839590627795L659.2881881255942,245.19224070150702L659.5301881255942,175.8562128408648L659.6511881255942,197.203508840392L661.2241881255943,228.07917212087938L661.4661881255942,156.5898539884781L662.6761881255942,177.81200026113763L663.0391881255943,187.93777273733403L664.3701881255943,260.8562791212307L664.7331881255942,275.16192029554725L664.9751881255942,166.69549916822675L665.2171881255942,125.30281280119141L666.6691881255941,295.53915570814513L668.7261881255943,154.52069281179658L670.5411881255942,262.43188594419826L671.2671881255942,204.85302303869528L672.1141881255942,112.72197578985396L673.0821881255943,250.03382431108807L673.5661881255943,239.91387222845398L674.4131881255943,146.25746129591207L674.5341881255941,166.3447735174394L674.6551881255942,161.86847780782935L675.8651881255942,258.9718009098278L678.4061881255942,275.3253043754804L679.0111881255942,199.9107353552083L679.6161881255942,157.6577722891068L680.3421881255941,87.81958340246359L681.5521881255942,189.506650434325L682.1571881255942,286.7373913391341L682.8831881255942,217.60163758833227L683.3671881255941,157.65466307241672L683.4881881255942,214.723359094451L684.4561881255942,209.96951697904873L684.8191881255942,235.39403246481257L684.9401881255942,230.2544822557671L685.1821881255942,220.7911081178886L685.5451881255941,199.07315443594257L685.6661881255942,164.410284982512L686.6341881255942,167.11312554914716L686.9971881255942,279.0498380525816L687.1181881255942,251.00126384336804L687.3601881255942,173.82946919042837L687.6021881255942,177.85422252256646L687.9651881255942,141.3541664942L688.0861881255942,268.9748494489896L688.8121881255942,189.33137773115425L689.5381881255942,262.4853885038601L689.7801881255942,274.53617166120887L690.1431881255942,218.43034146864235L692.5631881255941,125.53912829000669L692.8051881255942,164.77655671674967L693.5311881255942,249.81330274183605L694.3781881255942,245.85429357130377L695.8301881255942,308.1287571056596L698.1291881255942,202.76474093038837L698.3711881255941,176.94343231756463L700.3071881255942,274.93637441236854L700.6701881255942,232.55315469343498L700.9121881255942,215.09113286573702L701.0331881255942,197.5363752706746L703.3321881255941,215.40543411810216L706.2361881255941,326.31540291149554L706.5991881255941,236.03525208074888L708.1721881255942,220.59651921827614L709.1401881255942,184.56314610082887L710.1081881255941,148.39470981199486L710.2291881255942,187.76943944532655L710.5921881255941,199.0262458189229L710.8341881255942,210.85477255422882L710.9551881255941,169.9899020059801L712.6491881255943,183.090999589751L713.6171881255941,173.27862714369067L716.2791881255941,206.5236787660818L717.0051881255941,256.99647198755605L717.3681881255942,302.48497305948644L718.2151881255942,227.78336094457933L719.7881881255942,258.0786371095882L720.0301881255942,237.06479333479243L720.1511881255941,162.601216541121L720.9981881255942,210.9725773199301L723.1761881255942,284.92613743383777L725.1121881255941,151.50829742986906L725.9591881255941,165.33950518209699L726.5641881255941,237.86088799078306L726.6851881255942,205.63315104086206L727.4111881255941,253.91294764120437L728.9841881255941,181.97985266287108L729.2261881255941,176.0276403291918L729.9521881255941,141.28011606771682L733.0981881255941,252.2668051584468L733.7031881255941,173.24643848974478L735.2761881255941,230.84847782690358L735.7601881255941,242.39861701567017L737.9381881255941,215.52633308012304L738.9061881255942,196.7650642259816L741.6891881255941,241.00912760336243L742.0521881255942,315.49924163658545L742.173188125594,222.37141631681746L742.4151881255941,155.55419944364778L742.6571881255941,146.05103634435872L742.7781881255942,240.44690011579834L743.2621881255941,143.05315064031817L745.4401881255941,254.41896139223434L745.9241881255941,288.7393964393844L748.707188125594,238.55910991270383L750.2801881255941,133.26706384260382L752.216188125594,255.60151516039232L753.5471881255941,271.99763141710633L753.668188125594,284.1325136287917L755.4831881255941,52.66122196752667L755.846188125594,237.73280929167112L757.1771881255941,171.41401337225207L757.2981881255942,220.3431556089622L757.6611881255941,175.05694888670217L759.7181881255941,225.36915181715315L760.202188125594,309.32953058321397L762.6221881255941,222.89670871336284L762.8641881255941,254.15907894213058L764.558188125594,297.3209922178497L765.1631881255942,239.3200268610223L766.8571881255941,179.67765043813964L766.9781881255941,233.28682468969657L767.2201881255941,196.63554357130323L767.8251881255941,251.80344174940444L771.2131881255941,203.8465530737142L772.3021881255942,227.80743859846422L773.1491881255942,262.8086193664776L773.6331881255941,204.3692319257955L774.3591881255941,316.6844389899485L775.0851881255941,190.9181747301319L775.6901881255941,199.88281248647968L776.053188125594,238.06699751455625L776.2951881255941,226.03587602217024L778.110188125594,210.22656057913116L779.1991881255941,185.67418788511537L780.1671881255941,150.13836453993068L781.3771881255941,265.8753659589993L782.2241881255941,248.65030549604745L782.8291881255941,186.85101889211916L783.0711881255941,242.29661367971744L783.434188125594,206.30278919775293L784.5231881255941,285.8962505920638L784.765188125594,206.95219491560266L785.4911881255941,205.52369760114954L786.943188125594,284.12402711946856L787.548188125594,242.43346427519168L788.5161881255941,190.04891584951667L788.7581881255941,312.183566199135L789.968188125594,240.55267356474243L790.2101881255941,190.35114072401313L792.0251881255941,213.42654536802584L793.3561881255941,240.36212514479004L793.598188125594,267.41732715208406L794.082188125594,224.47480891783064L795.5341881255941,324.22766153652606L795.8971881255941,222.52528499204936L800.0111881255941,253.19793294508315L800.8581881255941,256.01291559774734L801.221188125594,246.69792769987433L801.7051881255941,170.78730343420276L803.399188125594,231.15001176435783L804.730188125594,239.10526560385068L805.577188125594,212.7984685762625L806.424188125594,258.2299598320232L807.634188125594,252.0903608663783L807.997188125594,155.5158073766922L808.602188125594,234.85986302931147L809.2071881255941,219.41181753713906L809.933188125594,212.36489056188873L810.175188125594,284.6184151037444L811.385188125594,266.80390273172725L811.506188125594,338.3213202222104L813.563188125594,230.72299765188527L813.9261881255941,328.8078118427509L814.7731881255941,162.50681351263285L816.2251881255941,163.04374669630286L818.040188125594,262.1455300911175L818.2821881255941,228.9790575369103L819.129188125594,135.29220031339855L820.339188125594,276.5926406248319L821.307188125594,252.4673346145854L821.549188125594,197.11847852308549L821.7911881255941,250.8728997572169L822.154188125594,252.43679069120742L822.3961881255941,249.875321851562L823.485188125594,269.2991993292081L824.695188125594,208.36520622808743L824.8161881255941,233.98651860792472L826.026188125594,277.9756562574613L826.510188125594,84.95003174383316L826.631188125594,251.278832779716L828.9301881255941,158.2360565527176L829.535188125594,221.59576438505474L829.7771881255941,212.46695397932342L829.898188125594,220.40942548353493L830.261188125594,119.95344303686335L831.350188125594,191.26033876974373L833.5281881255939,296.0966067178955L835.948188125594,283.1655397279967L836.5531881255939,176.48304294187798L837.037188125594,209.65760396559048L837.642188125594,248.35320256788583L838.368188125594,172.8706438406206L838.4891881255941,267.4895450933682L838.610188125594,229.69157885153126L838.973188125594,234.1286864145501L839.336188125594,220.01837013799965L841.030188125594,200.78453038770954L841.635188125594,228.78609083731007L841.998188125594,200.8059193952779L844.055188125594,161.94013999540567L844.176188125594,220.8477499349815L844.660188125594,253.75825284559585L845.2651881255939,187.4923887117603L846.1121881255939,147.00320767004231L847.201188125594,131.25229142744266L847.4431881255939,188.10954569418217L848.653188125594,316.0677814348452L849.3791881255939,135.88634608823983L849.6211881255939,214.6536044939261L850.347188125594,150.79750345785362L850.589188125594,287.48011110861194L850.831188125594,255.1317680938945L851.678188125594,185.58953307707094L852.2831881255939,220.69868777830425L852.525188125594,156.4733109338974L852.767188125594,154.30923603613127L853.7351881255939,172.165031896422L855.550188125594,221.54610704023662L856.034188125594,286.82594393331897L856.639188125594,90.9897527559487L857.002188125594,180.5217351778247L858.9381881255939,230.86950634558036L860.1481881255941,237.15933154661494L860.2691881255939,183.9881362779834L860.511188125594,289.1465235813369L861.237188125594,212.83298538763336L861.358188125594,287.4954093559493L861.9631881255939,214.80858467657384L862.8101881255939,203.94041536886496L863.415188125594,217.0265376432639L864.262188125594,268.3975865705716L864.9881881255939,117.43846224386402L866.561188125594,225.23461435873338L867.4081881255939,311.20034025747697L869.707188125594,277.1308580501783L872.127188125594,286.3054355247725L872.4901881255939,144.35613773901204L872.974188125594,248.76195190985055L873.095188125594,253.61990021307327L873.9421881255939,313.2800382240526L875.999188125594,234.0597579344018L877.330188125594,340.4159484370465L878.6611881255939,170.25996826727157L879.508188125594,301.7906113727799L880.234188125594,297.0935011966934L883.138188125594,278.52941976625806L885.921188125594,100.08876274664095L887.0101881255939,195.03554366667063L888.825188125594,264.2038841112362L888.946188125594,287.1914571388472L889.7931881255939,281.72656570513135L890.277188125594,324.0016350014918L891.4871881255939,247.36767099935858L891.850188125594,311.67413531382005L891.9711881255939,292.2899116142502L893.181188125594,247.47168706495614L893.6651881255939,187.02873991567873L894.633188125594,227.4606482847435L894.7541881255939,311.607234583687L895.238188125594,242.43356941778507L896.3271881255939,228.22318743307423L896.4481881255939,234.5013718469842L897.6581881255939,319.82652776081494L897.7791881255939,285.99859939653766L897.900188125594,201.45672200758258L898.8681881255939,288.62696896631616L899.3521881255939,281.47833906252276L901.2881881255939,242.26457522947635L902.256188125594,173.55569289762747L903.8291881255939,291.99004493791955L904.1921881255939,157.5756108625626L904.676188125594,265.3357441290127L904.9181881255939,295.59866641600036L905.0391881255939,230.27798913557362L905.4021881255939,334.9256988628621L906.4911881255939,152.702627168486L906.612188125594,301.9781181677094L907.701188125594,311.52830253679673L908.0641881255939,283.4332477911223L909.2741881255939,242.7071354253992L909.8791881255939,293.7686971290817L913.267188125594,273.8447539671171L914.2351881255938,208.80913327772427L915.3241881255939,257.049013243507L915.5661881255938,236.25298737127622L916.0501881255939,300.5025620325318L916.776188125594,162.24545906622168L917.018188125594,216.23562501509008L917.1391881255939,297.4533517225494L917.9861881255939,296.3609126671066L918.349188125594,327.2303011878246L918.954188125594,300.0862198932877L919.3171881255939,226.045624242614L919.4381881255938,215.9832677705985L920.285188125594,271.17477797109956L920.7691881255938,193.7928032739857L921.2531881255939,164.94017361242533L922.463188125594,323.1968397958987L922.5841881255939,70.28345106680052L924.0361881255939,285.66311942179095L924.5201881255939,177.01434348661678L925.3671881255939,279.4220578535307L925.8511881255939,276.9510792358625L927.1821881255939,319.13078044493125L928.6341881255939,274.088639722656L930.5701881255939,261.0809763534771L933.1111881255938,310.9626278742067L933.5951881255938,277.0143525465238L935.4101881255939,292.66452716429137L936.0151881255939,326.5032213791126L936.3781881255939,229.49850700933766L937.1041881255939,270.4307364090192L937.5881881255939,121.15804670889094L938.0721881255939,157.70006965238804L939.0401881255939,183.52480290968202L939.7661881255939,325.8017963631862L939.8871881255939,118.72871206838795L940.008188125594,267.9380158050763L941.9441881255939,285.11378692228686L942.7911881255939,314.7925444706194L943.0331881255939,257.43648623068196L943.7591881255938,276.2811707123029L944.7271881255939,328.4306991561168L945.0901881255938,298.0672643049469L945.5741881255939,286.2220949991454L945.8161881255938,299.1284159286728L946.7841881255938,186.73648856718327L947.7521881255939,192.3489100797871L948.1151881255938,239.0792953832849L949.2041881255939,321.850184725117" fill="none"></path></g></g></g></g></g></g><g transform="translate(40, 378)" clip-path="url(#clip_1)"><clipPath id="clip_1"><rect width="1089" height="22"></rect></clipPath><g><g><line x1="108.6171881255949" y1="0" x2="108.6171881255949" y2="5" style="visibility: inherit;" fill="rgb(0, 0, 0)" stroke="rgb(204, 204, 204)" stroke-width="1px"></line><line x1="229.61718812559474" y1="0" x2="229.61718812559474" y2="5" style="visibility: inherit;" fill="rgb(0, 0, 0)" stroke="rgb(204, 204, 204)" stroke-width="1px"></line><line x1="350.61718812559457" y1="0" x2="350.61718812559457" y2="5" style="visibility: inherit;" fill="rgb(0, 0, 0)" stroke="rgb(204, 204, 204)" stroke-width="1px"></line><line x1="471.61718812559445" y1="0" x2="471.61718812559445" y2="5" style="visibility: inherit;" fill="rgb(0, 0, 0)" stroke="rgb(204, 204, 204)" stroke-width="1px"></line><line x1="592.6171881255943" y1="0" x2="592.6171881255943" y2="5" style="visibility: inherit;" fill="rgb(0, 0, 0)" stroke="rgb(204, 204, 204)" stroke-width="1px"></line><line x1="713.6171881255941" y1="0" x2="713.6171881255941" y2="5" style="visibility: inherit;" fill="rgb(0, 0, 0)" stroke="rgb(204, 204, 204)" stroke-width="1px"></line><line x1="834.617188125594" y1="0" x2="834.617188125594" y2="5" style="visibility: inherit;" fill="rgb(0, 0, 0)" stroke="rgb(204, 204, 204)" stroke-width="1px"></line><line x1="955.6171881255939" y1="0" x2="955.6171881255939" y2="5" style="visibility: inherit;" fill="rgb(0, 0, 0)" stroke="rgb(204, 204, 204)" stroke-width="1px"></line><line x1="1076.6171881255937" y1="0" x2="1076.6171881255937" y2="5" style="visibility: inherit;" fill="rgb(0, 0, 0)" stroke="rgb(204, 204, 204)" stroke-width="1px"></line></g><g transform="translate(0, 8)"><text x="108.6171881255949" y="0" dx="0em" dy="0.95em" style="text-anchor: middle; visibility: inherit; font-family: &quot;Helvetica Neue&quot;, sans-serif; font-size: 12px; font-weight: 200;" fill="rgb(50, 49, 63)" stroke="none" stroke-width="1px">0</text><text x="229.61718812559474" y="0" dx="0em" dy="0.95em" style="text-anchor: middle; visibility: inherit; font-family: &quot;Helvetica Neue&quot;, sans-serif; font-size: 12px; font-weight: 200;" fill="rgb(50, 49, 63)" stroke="none" stroke-width="1px">1k</text><text x="350.61718812559457" y="0" dx="0em" dy="0.95em" style="text-anchor: middle; visibility: inherit; font-family: &quot;Helvetica Neue&quot;, sans-serif; font-size: 12px; font-weight: 200;" fill="rgb(50, 49, 63)" stroke="none" stroke-width="1px">2k</text><text x="471.61718812559445" y="0" dx="0em" dy="0.95em" style="text-anchor: middle; visibility: inherit; font-family: &quot;Helvetica Neue&quot;, sans-serif; font-size: 12px; font-weight: 200;" fill="rgb(50, 49, 63)" stroke="none" stroke-width="1px">3k</text><text x="592.6171881255943" y="0" dx="0em" dy="0.95em" style="text-anchor: middle; visibility: inherit; font-family: &quot;Helvetica Neue&quot;, sans-serif; font-size: 12px; font-weight: 200;" fill="rgb(50, 49, 63)" stroke="none" stroke-width="1px">4k</text><text x="713.6171881255941" y="0" dx="0em" dy="0.95em" style="text-anchor: middle; visibility: inherit; font-family: &quot;Helvetica Neue&quot;, sans-serif; font-size: 12px; font-weight: 200;" fill="rgb(50, 49, 63)" stroke="none" stroke-width="1px">5k</text><text x="834.617188125594" y="0" dx="0em" dy="0.95em" style="text-anchor: middle; visibility: inherit; font-family: &quot;Helvetica Neue&quot;, sans-serif; font-size: 12px; font-weight: 200;" fill="rgb(50, 49, 63)" stroke="none" stroke-width="1px">6k</text><text x="955.6171881255939" y="0" dx="0em" dy="0.95em" style="text-anchor: middle; visibility: inherit; font-family: &quot;Helvetica Neue&quot;, sans-serif; font-size: 12px; font-weight: 200;" fill="rgb(50, 49, 63)" stroke="none" stroke-width="1px">7k</text><text x="1076.6171881255937" y="0" dx="0em" dy="0.95em" style="text-anchor: middle; visibility: inherit; font-family: &quot;Helvetica Neue&quot;, sans-serif; font-size: 12px; font-weight: 200;" fill="rgb(50, 49, 63)" stroke="none" stroke-width="1px">8k</text></g><line x1="0" y1="0" x2="1089" y2="0" fill="rgb(0, 0, 0)" stroke="rgb(204, 204, 204)" stroke-width="1px"></line></g></g></g></g></svg>